<svg xmlns="http://www.w3.org/2000/svg" xmlns:xlink="http://www.w3.org/1999/xlink" viewBox="0,0,256,256" width="64px" height="64px" fill-rule="nonzero" fill="#ffffff"><g fill="#ffffff" fill-rule="nonzero" stroke="none" stroke-width="1" stroke-linecap="butt" stroke-linejoin="miter" stroke-miterlimit="10" stroke-dasharray="" stroke-dashoffset="0" font-family="none" font-weight="none" font-size="none" text-anchor="none" style="mix-blend-mode: normal"><g transform="scale(4,4)"><path d="M37,2.01367c-0.27817,0.0003 -0.54442,0.113 -0.73828,0.3125l-4.53906,4.98047l-6.42187,-2.04297c-0.2673,-0.08444 -0.55778,-0.05281 -0.80064,0.08719c-0.24286,0.14 -0.41581,0.37551 -0.4767,0.64914l-1.57813,7.21094c-0.11728,0.53929 0.2245,1.07163 0.76367,1.18945c0.53933,0.11861 1.07271,-0.22241 1.19141,-0.76172l1.3418,-6.13867l5.98633,1.9043c0.3714,0.11835 0.77772,0.0101 1.04102,-0.27734l4.23047,-4.64258l4.23047,4.64453c0.26329,0.28744 0.66961,0.39569 1.04102,0.27734l5.98633,-1.90625l1.3418,6.13867c0.08407,0.3812 0.38226,0.67863 0.76367,0.76172l6.13672,1.3418l-1.90625,5.98437c-0.11871,0.37236 -0.00961,0.77976 0.2793,1.04297l4.64258,4.23047l-2.01562,1.8418c-0.27639,0.23749 -0.40172,0.60653 -0.32711,0.96322c0.07461,0.35669 0.33735,0.64455 0.68576,0.75135c0.34841,0.10679 0.72733,0.01561 0.98901,-0.238l2.83008,-2.58008c0.20737,-0.18946 0.32551,-0.45739 0.32551,-0.73828c0,-0.28089 -0.11813,-0.54882 -0.32551,-0.73828l-4.98047,-4.53906l2.03906,-6.42187c0.08444,-0.2673 0.05281,-0.55778 -0.08719,-0.80064c-0.14,-0.24286 -0.37551,-0.41581 -0.64914,-0.4767l-6.58203,-1.43945l-1.44141,-6.58398c-0.06037,-0.27445 -0.23343,-0.51084 -0.47682,-0.6513c-0.24339,-0.14046 -0.53465,-0.17203 -0.80248,-0.08698l-6.41992,2.04297l-4.53906,-4.97852c-0.19386,-0.1995 -0.46011,-0.3122 -0.73828,-0.3125zM11.76172,2.02148c-0.30334,0.00582 -0.58888,0.1443 -0.78125,0.37891l-3,4c-0.22712,0.30313 -0.26347,0.70856 -0.09392,1.04726c0.16956,0.3387 0.51593,0.55253 0.8947,0.55235h2v6.5c0,1.38071 -1.11929,2.5 -2.5,2.5c-2.48528,0 -4.5,2.01472 -4.5,4.5v21.5c0,0.55228 0.44772,1 1,1c0.55228,0 1,-0.44772 1,-1v-21.5c0,-1.38071 1.11929,-2.5 2.5,-2.5c2.48414,-0.00276 4.49724,-2.01586 4.5,-4.5v-6.5h2c0.37842,-0.00055 0.72411,-0.21467 0.89318,-0.55322c0.16907,-0.33855 0.13255,-0.74354 -0.09435,-1.04639l-3,-4c-0.20062,-0.24463 -0.50203,-0.38419 -0.81836,-0.37891zM11.78125,4.66797l1,1.33203h-2zM5.125,9.00195c-0.81674,-0.03406 -1.61201,0.26664 -2.20189,0.83256c-0.58988,0.56592 -0.92329,1.34804 -0.92311,2.16549c0,1.65685 1.34315,3 3,3c1.63959,0.01002 2.98351,-1.29817 3.01768,-2.93744c0.03416,-1.63927 -1.25409,-3.00231 -2.89268,-3.06061zM5,11c0.55228,0 1,0.44772 1,1c0,0.55228 -0.44772,1 -1,1c-0.55228,0 -1,-0.44772 -1,-1c0,-0.55228 0.44772,-1 1,-1zM30.02344,12c-0.36533,-0.00822 -0.70605,0.18348 -0.88867,0.5l-4,6.92773c-0.19478,0.30998 -0.20461,0.70162 -0.02561,1.02098c0.179,0.31936 0.5182,0.51537 0.88427,0.511c0.36607,-0.00437 0.70049,-0.20844 0.87181,-0.53198l1.5,-2.59961l1.73242,1c0.4784,0.27614 1.09007,0.11218 1.36621,-0.36621c0.27614,-0.4784 0.11218,-1.09007 -0.36621,-1.36621l-1.73242,-1l1,-1.73242l2.60156,1.5c0.30998,0.19478 0.70162,0.2046 1.02097,0.0256c0.31935,-0.179 0.51537,-0.51819 0.511,-0.88426c-0.00437,-0.36607 -0.20843,-0.70049 -0.53197,-0.87181l-0.00195,0.00195l-3.46484,-2c-0.14504,-0.08417 -0.30892,-0.13051 -0.47656,-0.13477zM19.96289,13.17188c-0.0665,0.00253 -0.13258,0.01169 -0.19727,0.02734l-3.76562,0.82422c-0.27491,0.0603 -0.51169,0.23365 -0.65221,0.47752c-0.14052,0.24386 -0.17177,0.53565 -0.08607,0.80373l2.04492,6.41797l-4.98047,4.53906c-0.20737,0.18946 -0.32551,0.45739 -0.32551,0.73828c0,0.28089 0.11813,0.54882 0.32551,0.73828l4.98047,4.53906l-2.00586,6.3125c-0.483,0.33 -0.98023,0.64545 -1.49023,0.93945l-4.15039,2.39648c-0.45544,0.28618 -0.60291,0.88135 -0.33379,1.34706c0.26913,0.46572 0.85843,0.63512 1.33379,0.38341l2.59961,-1.5l5,8.66016l-5.19531,3l-1,-1.73047l1.73242,-1c0.4784,-0.27614 0.64235,-0.88782 0.36621,-1.36621c-0.27614,-0.4784 -0.88782,-0.64235 -1.36621,-0.36621l-1.73242,1l-1,-1.73242l1.73047,-1c0.32354,-0.17132 0.5276,-0.50574 0.53197,-0.87181c0.00437,-0.36607 -0.19164,-0.70527 -0.511,-0.88426c-0.31935,-0.179 -0.71099,-0.16918 -1.02097,0.0256l-1.73242,1l-1.5,-2.60156c-0.17316,-0.30028 -0.48947,-0.48948 -0.83594,-0.5c-0.34533,-0.00415 -0.66994,0.16438 -0.86523,0.44922l-3.69922,5.60156c-0.20853,0.31609 -0.22063,0.72286 -0.03125,1.05078l3,5.19922c0.17849,0.30916 0.50825,0.49972 0.86523,0.5h0.06055l6.67578,-0.40039c0.16154,-0.00617 0.31911,-0.05177 0.45898,-0.13281l0.86524,-0.5l2.66406,4.61523c0.70361,1.21924 2.04246,1.92875 3.44644,1.82641c1.40397,-0.10235 2.62578,-0.99852 3.14513,-2.30691c0.51935,-1.30839 0.24478,-2.79854 -0.7068,-3.8359l-3.13281,-3.42969l1.33594,-0.77148c3.84477,-2.22412 8.25712,-3.27255 12.69141,-3.01562l2.76563,3.03516c0.18946,0.20737 0.45739,0.32551 0.73828,0.32551c0.28089,0 0.54882,-0.11813 0.73828,-0.32551l4.53906,-4.98047l6.41992,2.04297c0.26705,0.0838 0.557,0.05184 0.79939,-0.0881c0.24239,-0.13994 0.41504,-0.37506 0.476,-0.64823l1.44141,-6.58203l6.58203,-1.44141c0.27491,-0.0603 0.51169,-0.23365 0.65221,-0.47752c0.14052,-0.24386 0.17177,-0.53565 0.08607,-0.80373l-2.23828,-7.0293c-0.16773,-0.5264 -0.73044,-0.81715 -1.25684,-0.64941c-0.5264,0.16773 -0.81715,0.73044 -0.64941,1.25684l1.90625,5.98437l-6.13672,1.3418c-0.38141,0.08309 -0.6796,0.38052 -0.76367,0.76172l-1.3418,6.13867l-5.98633,-1.90039c-0.37181,-0.11633 -0.77736,-0.00752 -1.04102,0.2793l-4.23047,4.63672l-2.7793,-3.05078l-2.60547,-4.51367c-0.28232,-0.46477 -0.88419,-0.6189 -1.35515,-0.34705c-0.47096,0.27185 -0.63852,0.87012 -0.37727,1.34705l2.10547,3.64844c-4.20725,0.03711 -8.33548,1.14697 -11.99414,3.22461l-5.00781,-8.67187c3.62944,-2.12927 6.65529,-5.14975 8.79102,-8.77539l4.10547,7.11133c0.28232,0.46477 0.88419,0.6189 1.35515,0.34705c0.47096,-0.27185 0.63852,-0.87012 0.37727,-1.34705l-5,-8.66016c-0.18096,-0.324 -0.5297,-0.51766 -0.90039,-0.5c-0.36835,0.01229 -0.70008,0.22619 -0.86328,0.55664c-1.18716,2.39356 -2.78644,4.55943 -4.72461,6.39844l1.2793,-4.01367c0.11871,-0.37236 0.00961,-0.77976 -0.2793,-1.04297l-4.64258,-4.22656l4.64258,-4.23047c0.28891,-0.26321 0.39801,-0.6706 0.2793,-1.04297l-1.90625,-5.98437l2.69141,-0.58984c0.51144,-0.10093 0.85955,-0.57783 0.7998,-1.0957c-0.05975,-0.51787 -0.50732,-0.90296 -1.02831,-0.88477zM36.08398,15.5c-0.36394,-0.00678 -0.70283,0.18473 -0.88477,0.5l-4,6.92773c-0.27614,0.4784 -0.11218,1.09007 0.36621,1.36621c0.4784,0.27614 1.09007,0.11218 1.36621,-0.36621l1.5,-2.59961l0.86719,0.5c0.47753,0.27639 0.64097,0.88732 0.36523,1.36523l-1,1.73242c-0.27614,0.4784 -0.11218,1.09007 0.36621,1.36621c0.4784,0.27614 1.09007,0.11218 1.36621,-0.36621l1,-1.73242c0.36779,-0.64221 0.48337,-1.39833 0.32422,-2.12109c0.70467,-0.22287 1.30084,-0.70065 1.67188,-1.33984c0.39818,-0.68938 0.50603,-1.50875 0.29978,-2.27768c-0.20624,-0.76893 -0.70966,-1.42435 -1.39939,-1.82193l-1.73242,-1c-0.14522,-0.08349 -0.30909,-0.12915 -0.47656,-0.13281zM36.43359,17.86719l0.86719,0.5c0.47541,0.27839 0.6361,0.88886 0.35938,1.36523c-0.27555,0.47474 -0.88227,0.63863 -1.35937,0.36719l-0.86719,-0.5zM43.01367,19.5c-0.36602,-0.00894 -0.70767,0.18286 -0.89062,0.5l-4,6.92773c-0.13288,0.22993 -0.16885,0.50327 -0.09996,0.75975c0.06888,0.25648 0.23695,0.47502 0.46715,0.60744l3.46484,2c0.15199,0.08772 0.32452,0.13354 0.5,0.13281c0.45206,-0.00062 0.84748,-0.30444 0.96453,-0.74108c0.11705,-0.43664 -0.0734,-0.89751 -0.46453,-1.12416l-2.59961,-1.5l1,-1.73242l1.73242,1c0.4784,0.27614 1.09007,0.11218 1.36621,-0.36621c0.27614,-0.4784 0.11218,-1.09007 -0.36621,-1.36621l-1.73242,-1l1,-1.73242l2.59961,1.5c0.47535,0.2517 1.06465,0.0823 1.33378,-0.38341c0.26912,-0.46571 0.12165,-1.06088 -0.33378,-1.34706l-3.46484,-2c-0.14504,-0.08417 -0.30892,-0.13051 -0.47656,-0.13477zM49.94141,23.5c-0.36533,-0.00822 -0.70605,0.18348 -0.88867,0.5l-4,6.92773c-0.13304,0.22969 -0.16931,0.50286 -0.1008,0.75931c0.06851,0.25645 0.23617,0.47514 0.46603,0.60788l3.46484,2c0.4784,0.27614 1.09007,0.11218 1.36621,-0.36621c0.27614,-0.4784 0.11218,-1.09007 -0.36621,-1.36621l-2.59961,-1.5l1,-1.73242l1.73242,1c0.1518,0.0884 0.32434,0.13491 0.5,0.13477c0.45341,0.00092 0.8507,-0.30335 0.96799,-0.74133c0.11728,-0.43798 -0.07479,-0.90007 -0.46799,-1.12586l-1.73242,-1l1,-1.73242l2.59961,1.5c0.47535,0.2517 1.06465,0.0823 1.33378,-0.38341c0.26912,-0.46571 0.12165,-1.06088 -0.33378,-1.34706l-3.46484,-2c-0.14504,-0.08417 -0.30892,-0.13051 -0.47656,-0.13477zM33.04492,27.45313c-0.33238,-0.00679 -0.64641,0.15206 -0.83789,0.42383l-2.46289,3.73047c-0.30253,0.46027 -0.17591,1.07853 0.2832,1.38281c0.46066,0.30386 1.08039,0.17712 1.38477,-0.2832l2.46484,-3.73047c0.18779,-0.30553 0.19759,-0.68822 0.02569,-1.00296c-0.1719,-0.31474 -0.49917,-0.51334 -0.85773,-0.52048zM38.29883,32.48633c-0.18204,-0.00383 -0.36167,0.04209 -0.51953,0.13281l-5.19922,3c-0.3932,0.22579 -0.58527,0.68787 -0.46799,1.12586c0.11728,0.43798 0.51457,0.74225 0.96799,0.74133c0.17539,0.00007 0.34776,-0.04571 0.5,-0.13281l5.19922,-3c0.38955,-0.22432 0.58166,-0.68092 0.46963,-1.11626c-0.11202,-0.43534 -0.50066,-0.74251 -0.9501,-0.75093zM11.87891,32.78516c-0.26018,0.00311 -0.5089,0.1075 -0.69336,0.29102l-0.70703,0.70898l-0.70703,-0.70898c-0.3921,-0.3808 -1.0173,-0.37622 -1.40379,0.01027c-0.38649,0.38649 -0.39106,1.01169 -0.01027,1.40379l0.70703,0.70898l-0.70703,0.70703c-0.26968,0.24861 -0.38161,0.62492 -0.29165,0.98051c0.08996,0.35559 0.36738,0.63339 0.72285,0.72385c0.35547,0.09045 0.73193,-0.02096 0.98091,-0.2903l0.70703,-0.70703l0.70703,0.70703c0.39048,0.39102 1.02402,0.39146 1.41504,0.00098c0.39102,-0.39048 0.39146,-1.02402 0.00098,-1.41504l-0.70898,-0.70703l0.70703,-0.70703c0.18835,-0.18735 0.29441,-0.44194 0.29477,-0.7076c0.00037,-0.26566 -0.10499,-0.52054 -0.29282,-0.70841c-0.19117,-0.19022 -0.45106,-0.29516 -0.7207,-0.29102zM40.02539,39.54688c-0.01434,0.00034 -0.02866,0.00099 -0.04297,0.00195l-4.46289,0.26758c-0.55088,0.01804 -0.98341,0.47825 -0.96726,1.0292c0.01614,0.55094 0.47486,0.98505 1.02586,0.9708h0.06055l4.46484,-0.26758c0.54832,-0.02741 0.97243,-0.49103 0.95102,-1.03961c-0.02141,-0.54858 -0.48036,-0.97774 -1.02914,-0.96234zM60.87891,40.78516c-0.26018,0.00311 -0.5089,0.1075 -0.69336,0.29102l-0.70703,0.70898l-0.70703,-0.70898c-0.3921,-0.38079 -1.0173,-0.37621 -1.40379,0.01028c-0.38649,0.38649 -0.39106,1.01168 -0.01028,1.40379l0.70703,0.70898l-0.70703,0.70703c-0.2588,0.25133 -0.36217,0.62257 -0.2705,0.97149c0.09167,0.34891 0.36416,0.62141 0.71308,0.71308c0.34891,0.09167 0.72015,-0.0117 0.97149,-0.2705l0.70703,-0.70703l0.70703,0.70703c0.3921,0.38079 1.0173,0.37621 1.40379,-0.01028c0.38649,-0.38649 0.39106,-1.01168 0.01028,-1.40379l-0.70898,-0.70703l0.70703,-0.70703c0.18835,-0.18735 0.29441,-0.44194 0.29477,-0.7076c0.00037,-0.26566 -0.10499,-0.52054 -0.29282,-0.70841c-0.19117,-0.19022 -0.45106,-0.29516 -0.7207,-0.29102zM6.63867,46.69141l4.38281,7.58984l-4.46484,0.26953l-1.19141,-2.06445l0.86719,-0.5c0.32354,-0.17132 0.5276,-0.50574 0.53197,-0.87181c0.00437,-0.36607 -0.19164,-0.70527 -0.511,-0.88426c-0.31935,-0.179 -0.71099,-0.16918 -1.02097,0.0256l-0.86719,0.5l-0.18945,-0.33203zM55.76172,47.02148c-0.30334,0.00582 -0.58888,0.1443 -0.78125,0.37891l-3,4c-0.22712,0.30313 -0.26347,0.70856 -0.09392,1.04726c0.16956,0.3387 0.51592,0.55253 0.8947,0.55235h2.21875v4c0,1.65685 -1.34315,3 -3,3h-24c-0.55228,0 -1,0.44772 -1,1c0,0.55228 0.44772,1 1,1h24c2.76005,-0.00331 4.99669,-2.23995 5,-5v-4h1.78125c0.37842,-0.00055 0.72411,-0.21467 0.89318,-0.55322c0.16907,-0.33855 0.13255,-0.74354 -0.09435,-1.04639l-3,-4c-0.20062,-0.24463 -0.50203,-0.38419 -0.81836,-0.37891zM55.78125,49.66797l1,1.33203h-2zM44.91211,52.00195c-1.6314,0.05801 -2.91699,1.4098 -2.89307,3.04206c0.02392,1.63226 1.34856,2.9458 2.98097,2.95599c0.55228,0 1,-0.44772 1,-1c0,-0.55228 -0.44772,-1 -1,-1c-0.55228,0 -1,-0.44772 -1,-1c0,-0.55228 0.44772,-1 1,-1c0.55228,0 1,0.44772 1,1c0,0.55228 0.44772,1 1,1c0.55228,0 1,-0.44772 1,-1c-0.00018,-0.81078 -0.32852,-1.58696 -0.91022,-2.15174c-0.5817,-0.56478 -1.36724,-0.87006 -2.17767,-0.84631zM17.69141,53.44922l3.44531,3.75c0.34327,0.37293 0.49786,0.88198 0.41992,1.38281c-0.10718,0.70161 -0.64589,1.25896 -1.34345,1.38995c-0.69756,0.13098 -1.40176,-0.19298 -1.75616,-0.80792l-2.66406,-4.61523z"></path></g></g></svg>