<svg xmlns="http://www.w3.org/2000/svg" xmlns:xlink="http://www.w3.org/1999/xlink" viewBox="0,0,256,256" width="80px" height="80px"><g fill="#ffffff" fill-rule="nonzero" stroke="none" stroke-width="1" stroke-linecap="butt" stroke-linejoin="miter" stroke-miterlimit="10" stroke-dasharray="" stroke-dashoffset="0" font-family="none" font-weight="none" font-size="none" text-anchor="none" style="mix-blend-mode: normal"><g transform="scale(3.2,3.2)"><path d="M39.38672,8c-2.53516,0 -4.72266,1.35938 -6.29687,2.64063c-1.57422,1.28516 -2.57812,2.57813 -2.57812,2.57813l-0.90234,1.15625l1.40625,0.41797c0,0 0.12891,0.02734 0.35938,0.26172c0.23047,0.23438 0.50781,0.62891 0.50781,1.55859c0,1.54688 0.24219,2.91406 0.33203,3.40625c-0.07422,0.19141 -0.21484,0.32813 -0.21484,0.55469c0,0.45313 0.10938,0.70313 0.1875,0.96484c0.03906,0.12891 0.07422,0.24609 0.09375,0.32422c0.01953,0.07813 0.01172,0.16797 0.01172,-0.03125c0,0.58203 0.34766,1.01172 0.79688,1.31641c0.19531,2.05469 1.32422,3.76563 2.91016,4.91406v1.09766c-0.32422,0.09375 -2.03906,0.5625 -4.10937,1.53906c-1.125,0.53125 -2.26953,1.17578 -3.19141,1.96875c-0.92578,0.79297 -1.69922,1.80859 -1.69922,3.07813v1.56641c-1.36328,-0.53125 -2.77344,-1.08203 -3,-1.14844v-1.10156c0.44141,-0.31641 0.83984,-0.68359 1.19922,-1.08203c0.46484,-0.09375 0.80078,-0.50391 0.80078,-0.98047c0,-0.02734 -0.00391,-0.05859 -0.00391,-0.08594c0.49219,-0.82031 0.81641,-1.75 0.91406,-2.76562c0.44922,-0.30469 0.79688,-0.73437 0.79688,-1.31641c0,0.19922 -0.00781,0.10938 0.01172,0.03125c0.01953,-0.07812 0.05469,-0.19531 0.09375,-0.32422c0.07813,-0.26172 0.1875,-0.51172 0.1875,-0.96484c0,-0.22266 -0.14453,-0.36328 -0.21875,-0.55469c0.09375,-0.62891 0.46875,-3.12109 0.46875,-4.73828c0,-1.85937 -0.71484,-3.27344 -1.70312,-4.14062c-0.83203,-0.73047 -1.78906,-1.02734 -2.67578,-1.12109c-0.17187,-0.25781 -0.23437,-0.45312 -0.73047,-0.84375c-0.77734,-0.60547 -2.01953,-1.17578 -3.75391,-1.17578c-2.53516,0 -4.72266,1.35938 -6.29687,2.64063c-1.57422,1.28516 -2.57812,2.57813 -2.57812,2.57813l-0.90234,1.15625l1.40625,0.41797c0,0 0.12891,0.02734 0.35938,0.26172c0.23047,0.23438 0.50781,0.62891 0.50781,1.55859c0,1.23828 0.14453,2.23438 0.25391,2.88672c-0.08984,0.15234 -0.13672,0.32422 -0.13672,0.5c0,0.11719 0.01953,0.23438 0.0625,0.34375c-0.03125,0.07031 -0.0625,0.14063 -0.0625,0.23047c0,0.45313 0.10938,0.70313 0.1875,0.96484c0.03906,0.12891 0.07422,0.24609 0.09375,0.32422c0.01953,0.07813 0.01172,0.16797 0.01172,-0.03125c0,0.58203 0.34766,1.01172 0.79688,1.31641c0.19531,2.05469 1.32422,3.76563 2.91016,4.91406v1.09766c-0.32422,0.09375 -2.03906,0.5625 -4.10937,1.53906c-1.125,0.53125 -2.26953,1.17578 -3.19531,1.96875c-0.92188,0.79297 -1.69531,1.80859 -1.69531,3.07813v13.25391c0,3.76953 2.32031,7.16406 6.01563,9.85156c3.69531,2.6875 8.8125,4.75 14.78516,5.96094l1.19922,0.24219v-4.30859c0,-0.41406 0.30469,-0.96094 1,-1.5625c0.69922,-0.60156 1.71484,-1.1875 2.74609,-1.67578c2.01563,-0.95312 3.96484,-1.49609 4.0625,-1.52344h1.19141v-3.87109l-0.5,-0.28906c-1.48828,-0.85937 -2.48828,-2.45312 -2.49609,-4.29687l-0.00391,-0.97266l-0.75391,-0.01953c-0.01562,-0.05078 -0.02344,-0.14453 -0.03516,-0.19531c-0.03516,-0.125 -0.07031,-0.24609 -0.10547,-0.36719c-0.05859,-0.19531 -0.07812,-0.32812 -0.08984,-0.33203l0.27734,-0.30859l-0.08984,-0.48047c-0.0625,-0.33203 -0.32031,-1.83594 -0.32031,-3.23828c0,-1.35937 -0.5,-2.32812 -1.04687,-2.91016c0.35938,-0.41406 0.58594,-0.75391 1.51953,-1.51172c1.38672,-1.13281 3.24219,-2.19141 5.03125,-2.19141c1.30859,0 2.0625,0.39453 2.52344,0.75391c0.46094,0.35938 0.57422,0.62109 0.57422,0.62109l0.27734,0.55859h0.62109c0.51953,0 1.27734,0.21094 1.84375,0.71094c0.56641,0.5 1.02344,1.26172 1.02344,2.63672c0,1.3125 -0.39062,4.11719 -0.46094,4.60156l-0.07031,0.46875l0.26563,0.28906c-0.01172,0.00391 -0.03125,0.13672 -0.08984,0.33203c-0.03516,0.12109 -0.07031,0.24219 -0.10547,0.36719c-0.01172,0.05078 -0.01953,0.14453 -0.03516,0.19141l-0.75391,0.01953l-0.00391,0.97266c-0.00781,1.84766 -1.01172,3.44141 -2.49609,4.30078l-0.5,0.28906v3.87109h1.19141c0.09766,0.02734 2.04688,0.57031 4.0625,1.52344c1.03125,0.48828 2.04688,1.07422 2.74609,1.67578c0.69531,0.60156 1,1.14844 1,1.5625v4.30859l1.19922,-0.24219c5.97266,-1.21094 11.08984,-3.27344 14.78516,-5.96094c3.69531,-2.6875 6.01563,-6.08203 6.01563,-9.85156v-13.25391c0,-1.26953 -0.77344,-2.28125 -1.69922,-3.07422c-0.92187,-0.79687 -2.06641,-1.4375 -3.19141,-1.96875c-1.47266,-0.69531 -2.55859,-1.05859 -3.29687,-1.28516c-0.19141,-0.26172 -0.49219,-0.41797 -0.8125,-0.41797v-0.9375c1.58984,-1.14844 2.71484,-2.85937 2.91016,-4.91406c0.44922,-0.30469 0.79688,-0.73047 0.79688,-1.31641c0,0.20313 -0.00781,0.10938 0.01172,0.03125c0.01563,-0.05859 0.04688,-0.15625 0.07422,-0.25391c0.13281,-0.17578 0.20703,-0.39062 0.20703,-0.60937c0,-0.07422 -0.00781,-0.14453 -0.02344,-0.21875c0.00781,-0.07031 0.02344,-0.12109 0.02344,-0.20703c0,-0.22266 -0.14453,-0.35937 -0.21875,-0.55078c0.09375,-0.62891 0.46875,-3.125 0.46875,-4.74219c0,-1.85937 -0.71484,-3.27344 -1.70312,-4.14062c-0.83203,-0.73047 -1.78906,-1.02734 -2.67578,-1.12109c-0.17187,-0.25781 -0.23437,-0.45312 -0.73047,-0.83984c-0.77734,-0.60547 -2.01953,-1.17969 -3.75391,-1.17969c-2.53516,0 -4.72266,1.35938 -6.29687,2.64063c-1.57422,1.28516 -2.57812,2.57813 -2.57812,2.57813l-0.90234,1.15625l1.40625,0.41797c0,0 0.12891,0.02734 0.35938,0.26172c0.23047,0.23438 0.50781,0.62891 0.50781,1.55859c0,1.55078 0.24219,2.91797 0.33203,3.41406c-0.07031,0.1875 -0.21484,0.32422 -0.21484,0.54688c0,0.45313 0.10938,0.70313 0.1875,0.96484c0.03906,0.12891 0.07422,0.24609 0.09375,0.32422c0.01953,0.07813 0.01172,0.16797 0.01172,-0.03125c0,0.58203 0.34766,1.01172 0.79688,1.31641c0.19531,2.05469 1.32422,3.76563 2.91016,4.91406v1.10156c-0.22656,0.06641 -1.63672,0.61719 -3,1.14844v-1.56641c0,-1.26953 -0.77344,-2.28516 -1.69922,-3.07812c-0.92187,-0.79297 -2.06641,-1.4375 -3.19141,-1.96875c-2.07031,-0.97656 -3.78516,-1.44531 -4.10937,-1.53906v-1.09766c1.58984,-1.14844 2.71484,-2.85937 2.91016,-4.91406c0.44922,-0.30469 0.79688,-0.73437 0.79688,-1.31641c0,0.19922 -0.00781,0.10938 0.01172,0.03125c0.01953,-0.07812 0.05469,-0.19531 0.09375,-0.32422c0.07813,-0.26172 0.1875,-0.51172 0.1875,-0.96484c0,-0.22266 -0.14453,-0.36328 -0.21875,-0.55469c0.09375,-0.62891 0.46875,-3.12109 0.46875,-4.73828c0,-1.85937 -0.71484,-3.27344 -1.70312,-4.14062c-0.83203,-0.73047 -1.78906,-1.02734 -2.67578,-1.12109c-0.17187,-0.25781 -0.23437,-0.45312 -0.73047,-0.83984c-0.77734,-0.60937 -2.01953,-1.17969 -3.75391,-1.17969zM39.38672,10c1.30859,0 2.0625,0.39453 2.52344,0.75391c0.46094,0.35938 0.57422,0.62109 0.57422,0.62109l0.27734,0.55859h0.62109c0.51953,0 1.27734,0.21094 1.84375,0.71094c0.56641,0.5 1.02344,1.26172 1.02344,2.63672c0,1.3125 -0.39062,4.11719 -0.46094,4.60156l-0.07031,0.46875l0.26563,0.28906c-0.01172,0.00391 -0.03125,0.13672 -0.08984,0.33203c-0.03516,0.12109 -0.07031,0.24219 -0.10547,0.36719c-0.01172,0.05078 -0.01953,0.14453 -0.03516,0.19531l-0.75391,0.01953l-0.00391,0.97266c-0.00781,1.84375 -1.00781,3.4375 -2.49609,4.29688l-0.5,0.28906v3.87109h1.19141c0.09766,0.02734 2.04688,0.57031 4.0625,1.52344c0.41797,0.19922 0.82422,0.41797 1.21484,0.64453c-0.28906,0.18359 -0.46875,0.50391 -0.46875,0.84766c0,0.55078 0.44922,1 1,1c0.48438,0 0.90234,-0.34766 0.98438,-0.82812c0.00391,0.00391 0.01172,0.00781 0.01563,0.01172c0.69531,0.60156 1,1.14844 1,1.5625v4.625l1.44141,-0.71094c2.10938,-1.03906 4.27344,-1.64844 4.37109,-1.67578h1.01172c0.05859,0.01172 0.11719,0.01563 0.17578,0.01563c0.55078,0 1,-0.44922 1,-1c0,-0.55078 -0.44922,-1 -1,-1v-1.88672l-0.5,-0.28906c-1.48437,-0.85937 -2.48828,-2.45312 -2.49609,-4.30078l-0.00391,-0.52344c0.55078,0 1,-0.44922 1,-1c0,-0.55078 -0.44922,-1 -1,-1c-0.26953,0 -0.52734,0.10938 -0.71484,0.30078l-0.08203,-0.44922c-0.0625,-0.33203 -0.32031,-1.83594 -0.32031,-3.23828c0,-1.35547 -0.5,-2.32812 -1.04687,-2.91016c0.35938,-0.41406 0.58594,-0.75391 1.51953,-1.51172c1.38672,-1.13281 3.24219,-2.19141 5.03125,-2.19141c1.30859,0 2.0625,0.39453 2.52344,0.75391c0.46094,0.36328 0.57422,0.62109 0.57422,0.62109l0.27734,0.55859h0.23828c0,0.02344 0,0.04297 0,0.06641c0,0.55078 0.44922,1 1,1c0.39063,0 0.74219,-0.22656 0.90625,-0.58203c0.10938,0.07031 0.21875,0.14063 0.32031,0.22656c0.4375,0.38281 0.80078,0.93359 0.94922,1.78906c-0.11328,0.16797 -0.17578,0.36328 -0.17578,0.56641c0,0.23438 0.08203,0.46094 0.23438,0.64063c-0.05078,1.40234 -0.37891,3.79688 -0.44531,4.24609l-0.07031,0.46484l0.26563,0.28906c-0.01172,0 -0.03125,0.14063 -0.08984,0.33594c-0.03516,0.11719 -0.07031,0.23828 -0.10547,0.36328c-0.01172,0.05078 -0.01953,0.14844 -0.03516,0.19531l-0.75391,0.01953l-0.00391,0.97266c0,0.34375 -0.04687,0.67578 -0.11719,1c-0.17187,-0.32422 -0.51172,-0.52734 -0.87891,-0.52734c-0.55078,0 -1,0.44922 -1,1c0,0.55078 0.44922,1 1,1c0.125,0 0.24609,-0.02344 0.35938,-0.06641c-0.4375,0.78516 -1.07812,1.44141 -1.85937,1.89453l-0.5,0.28516v3.87109h1.1875c0.07813,0.02344 1.5625,0.45313 3.26563,1.17969c-0.28125,0.18359 -0.45312,0.5 -0.45312,0.83594c0,0.55078 0.44922,1 1,1c0.55078,0 1,-0.44922 1,-1c0,-0.03125 -0.00391,-0.06641 -0.00391,-0.09766c0.75391,0.39844 1.47656,0.83203 2.00391,1.28516c0.69531,0.59766 1,1.14453 1,1.55859v13.25391c0,1.37109 -0.41016,2.71875 -1.17187,4.01563c-0.48047,0.08594 -0.82812,0.5 -0.82812,0.98438c0,0.07031 0.00781,0.13672 0.01953,0.20313c-0.48828,0.62891 -1.07812,1.24219 -1.74219,1.83594c-0.08984,-0.02734 -0.18359,-0.03906 -0.27734,-0.03906c-0.55078,0 -1,0.44922 -1,1c0,0.02734 0,0.05469 0.00391,0.07813c-0.06641,0.05078 -0.125,0.10547 -0.19531,0.15625c-3.11719,2.26953 -7.61719,4.07422 -12.80859,5.26563v-1.75391c0,-1.26953 -0.77344,-2.28516 -1.69922,-3.07812c-0.92187,-0.79297 -2.06641,-1.4375 -3.19141,-1.96875c-0.64844,-0.30469 -1.23828,-0.54687 -1.78125,-0.75781c0.40234,-0.13672 0.67188,-0.51562 0.67188,-0.94141c0,-0.55078 -0.44922,-1 -1,-1c-0.55078,0 -1,0.44922 -1,1c0,0.18359 0.05078,0.36328 0.14453,0.51563c-0.52734,-0.17187 -1.01172,-0.31641 -1.14453,-0.35547v-1.09766c1.58594,-1.14844 2.71484,-2.85937 2.91016,-4.91406c0.44922,-0.30469 0.79688,-0.73437 0.79688,-1.31641c0,0.19922 -0.00781,0.10938 0.01172,0.03125c0.01953,-0.07812 0.05469,-0.19531 0.09375,-0.32422c0.07813,-0.26172 0.1875,-0.51172 0.1875,-0.96484c0,-0.22266 -0.14453,-0.36328 -0.21875,-0.55469c0.09375,-0.62891 0.46875,-3.12109 0.46875,-4.73828c0,-0.22656 -0.01172,-0.44531 -0.03125,-0.65625c0.1875,0.23828 0.47656,0.375 0.78125,0.375c0.55078,0 1,-0.44922 1,-1c0,-0.55078 -0.44922,-1 -1,-1c-0.43359,0 -0.81641,0.28125 -0.94922,0.69141c-0.23047,-0.90234 -0.64453,-1.65234 -1.17187,-2.22266c0.07813,-0.14453 0.12109,-0.30469 0.12109,-0.46875c0,-0.55078 -0.44922,-1 -1,-1c-0.28906,0 -0.56641,0.12891 -0.75391,0.34766c-0.46094,-0.17969 -0.92578,-0.28125 -1.375,-0.32812c-0.17187,-0.25781 -0.23437,-0.45312 -0.73047,-0.84375c-0.08203,-0.0625 -0.19141,-0.125 -0.28516,-0.1875c0.04688,0.00781 0.09375,0.01172 0.14453,0.01172c0.55078,0 1,-0.44922 1,-1c0,-0.55078 -0.44922,-1 -1,-1c-0.55078,0 -1,0.44922 -1,1c0,0.22656 0.07813,0.44922 0.21875,0.625c-0.73047,-0.35547 -1.66016,-0.625 -2.83203,-0.625c-0.48047,0 -0.94531,0.0625 -1.39844,0.14844c0.00781,-0.05078 0.01172,-0.09766 0.01172,-0.14844c0,-0.55078 -0.44922,-1 -1,-1c-0.55078,0 -1,0.44922 -1,1c0,0.25 0.09375,0.49219 0.26563,0.67578c-1.21875,0.51563 -2.29687,1.25 -3.17578,1.96484c-1.57422,1.28516 -2.57812,2.57813 -2.57812,2.57813l-0.90234,1.15625l1.40625,0.41797c0,0 0.12891,0.02734 0.35938,0.26172c0.23047,0.23438 0.50781,0.62891 0.50781,1.55859c0,1.55078 0.24219,2.91406 0.33203,3.40625c-0.07422,0.19141 -0.21484,0.32813 -0.21484,0.55469c0,0.45313 0.10938,0.70313 0.1875,0.96484c0.03906,0.12891 0.07422,0.24609 0.09375,0.32422c0.01953,0.07813 0.01172,0.16797 0.01172,-0.03125c0,0.58203 0.34766,1.01172 0.79688,1.31641c0.19531,2.05469 1.32031,3.76563 2.91016,4.91406v1.09766c-0.13281,0.03906 -0.61719,0.18359 -1.14453,0.35547c0.09375,-0.15234 0.14453,-0.33203 0.14453,-0.51562c0,-0.55078 -0.44922,-1 -1,-1c-0.55078,0 -1,0.44922 -1,1c0,0.42578 0.26953,0.80469 0.67188,0.94141c-0.54297,0.21094 -1.13281,0.45313 -1.78125,0.75781c-1.125,0.53125 -2.26953,1.17578 -3.19141,1.96875c-0.92578,0.79297 -1.69922,1.80859 -1.69922,3.07813v1.75391c-5.19141,-1.19141 -9.69141,-2.99609 -12.80859,-5.26562c-0.07031,-0.05078 -0.12891,-0.10156 -0.19531,-0.15234c0.00391,-0.02734 0.00391,-0.05469 0.00391,-0.08203c0,-0.55078 -0.44922,-1 -1,-1c-0.09375,0 -0.1875,0.01172 -0.27734,0.03906c-0.66406,-0.59375 -1.25391,-1.20703 -1.74219,-1.83594c0.01172,-0.06641 0.01953,-0.13672 0.01953,-0.20312c0,-0.48828 -0.34766,-0.90234 -0.82812,-0.98437c-0.76172,-1.29687 -1.17187,-2.64453 -1.17187,-4.01562v-13.25391c0,-0.41406 0.30469,-0.96094 1,-1.5625c0.52734,-0.45312 1.25,-0.88281 2.00391,-1.28125c0,0.03125 -0.00391,0.0625 -0.00391,0.09766c0,0.55078 0.44922,1 1,1c0.55078,0 1,-0.44922 1,-1c0,-0.33984 -0.17187,-0.65234 -0.45312,-0.83984c1.69531,-0.72266 3.17969,-1.15234 3.26172,-1.17578h1.19141v-3.87109l-0.5,-0.28906c-1.23437,-0.71484 -2.125,-1.9375 -2.39844,-3.38672c0.16797,0.34375 0.51563,0.5625 0.89844,0.5625c0.55078,0 1,-0.44922 1,-1c0,-0.55078 -0.44922,-1 -1,-1c-0.47266,0 -0.87891,0.33203 -0.97656,0.79297c-0.00391,-0.08984 -0.01953,-0.17969 -0.01953,-0.26953l-0.00391,-0.97266l-0.75391,-0.01953c-0.01562,-0.04687 -0.02344,-0.14062 -0.03516,-0.19141c-0.03516,-0.125 -0.07031,-0.24609 -0.10547,-0.36719c-0.05859,-0.19531 -0.07812,-0.32812 -0.08984,-0.33203l0.27734,-0.30859l-0.08984,-0.48047c-0.0625,-0.33203 -0.32031,-1.83594 -0.32031,-3.23828c0,-1.16016 -0.37109,-2.02344 -0.82031,-2.61719c0.52734,-0.03516 0.9375,-0.46875 0.9375,-0.99609c0,-0.14062 -0.03125,-0.28125 -0.08984,-0.40625c0.14844,-0.13672 0.23047,-0.23047 0.44531,-0.40234c0.52344,-0.42578 1.11328,-0.84375 1.73828,-1.19531c0.25391,-0.02734 0.49219,-0.14844 0.65625,-0.33984c0.85547,-0.39844 1.75391,-0.65625 2.63672,-0.65625c0.69922,0 1.23047,0.11719 1.65234,0.27734c0.12109,0.42578 0.51563,0.72266 0.96094,0.72266c0.05078,0 0.10156,-0.00391 0.15234,-0.01562c0.21875,0.22266 0.33203,0.39063 0.33203,0.39063l0.27734,0.55859h0.62109c0.30078,0 0.67969,0.08203 1.05469,0.23828c-0.27344,0.1875 -0.4375,0.49609 -0.4375,0.82813c0,0.55078 0.44922,1 1,1c0.35938,0 0.69141,-0.19531 0.87109,-0.50781c0.22656,0.44922 0.37891,1.01563 0.37891,1.78906c0,1.17578 -0.28906,3.35156 -0.40625,4.18359c-0.18359,-0.28906 -0.5,-0.46484 -0.84375,-0.46484c-0.55078,0 -1,0.44922 -1,1c0,0.55078 0.44922,1 1,1c0.35547,0 0.68359,-0.1875 0.85938,-0.49609l0.125,0.13672c-0.01172,0.00391 -0.03125,0.13672 -0.08984,0.33203c-0.03516,0.12109 -0.07031,0.24219 -0.10547,0.36719c-0.01172,0.05078 -0.01953,0.14453 -0.03516,0.19531l-0.75391,0.01953l-0.00391,0.97266c-0.00781,1.84375 -1.00781,3.4375 -2.49609,4.29688l-0.5,0.28906v0.88672c-0.55078,0 -1,0.44922 -1,1c0,0.55078 0.44922,1 1,1v0.98438h1.1875c0.09766,0.02734 2.26172,0.63672 4.37109,1.67578l1.44141,0.71094v-4.625c0,-0.41406 0.30469,-0.96094 1,-1.5625c0.00781,-0.00391 0.01172,-0.00781 0.01563,-0.01172c0.08203,0.47656 0.5,0.82813 0.98438,0.82813c0.55078,0 1,-0.44922 1,-1c0,-0.34375 -0.17578,-0.66406 -0.46875,-0.84766c0.39453,-0.22656 0.79688,-0.44531 1.21484,-0.64453c2.01563,-0.95312 3.96484,-1.49609 4.0625,-1.52344h1.19141v-3.87109l-0.5,-0.28906c-1.48437,-0.85937 -2.48828,-2.45312 -2.49609,-4.30078l-0.00391,-0.97266l-0.75391,-0.01953c-0.01562,-0.04687 -0.02344,-0.14062 -0.03516,-0.19141c-0.03516,-0.125 -0.07031,-0.24609 -0.10547,-0.36719c-0.05859,-0.19531 -0.07812,-0.32812 -0.08984,-0.33203l0.27734,-0.30859l-0.08984,-0.48047c-0.0625,-0.33203 -0.32031,-1.83594 -0.32031,-3.23828c0,-1.35937 -0.5,-2.32812 -1.04687,-2.91016c0.35938,-0.41406 0.58594,-0.75391 1.51953,-1.51172c1.38672,-1.13281 3.24219,-2.19141 5.03125,-2.19141zM9,43c0,0.55078 0.44922,1 1,1c0.55078,0 1,-0.44922 1,-1c0,-0.55078 -0.44922,-1 -1,-1c-0.55078,0 -1,0.44922 -1,1zM9,49c0,0.55078 0.44922,1 1,1c0.55078,0 1,-0.44922 1,-1c0,-0.55078 -0.44922,-1 -1,-1c-0.55078,0 -1,0.44922 -1,1zM9,55c0,0.55078 0.44922,1 1,1c0.55078,0 1,-0.44922 1,-1c0,-0.55078 -0.44922,-1 -1,-1c-0.55078,0 -1,0.44922 -1,1zM71,55c0,-0.55078 -0.44922,-1 -1,-1c-0.55078,0 -1,0.44922 -1,1c0,0.55078 0.44922,1 1,1c0.55078,0 1,-0.44922 1,-1zM71,49c0,-0.55078 -0.44922,-1 -1,-1c-0.55078,0 -1,0.44922 -1,1c0,0.55078 0.44922,1 1,1c0.55078,0 1,-0.44922 1,-1zM71,43c0,-0.55078 -0.44922,-1 -1,-1c-0.55078,0 -1,0.44922 -1,1c0,0.55078 0.44922,1 1,1c0.55078,0 1,-0.44922 1,-1zM40,12c-0.55078,0 -1,0.44922 -1,1c0,0.55078 0.44922,1 1,1c0.55078,0 1,-0.44922 1,-1c0,-0.55078 -0.44922,-1 -1,-1zM37,15c-0.55078,0 -1,0.44922 -1,1c0,0.55078 0.44922,1 1,1c0.55078,0 1,-0.44922 1,-1c0,-0.55078 -0.44922,-1 -1,-1zM43,15c-0.55078,0 -1,0.44922 -1,1c0,0.55078 0.44922,1 1,1c0.55078,0 1,-0.44922 1,-1c0,-0.55078 -0.44922,-1 -1,-1zM40,18c-0.55078,0 -1,0.44922 -1,1c0,0.55078 0.44922,1 1,1c0.55078,0 1,-0.44922 1,-1c0,-0.55078 -0.44922,-1 -1,-1zM58,18c-0.55078,0 -1,0.44922 -1,1c0,0.55078 0.44922,1 1,1c0.55078,0 1,-0.44922 1,-1c0,-0.55078 -0.44922,-1 -1,-1zM19,19c-0.55078,0 -1,0.44922 -1,1c0,0.55078 0.44922,1 1,1c0.55078,0 1,-0.44922 1,-1c0,-0.55078 -0.44922,-1 -1,-1zM37,21c-0.55078,0 -1,0.44922 -1,1c0,0.55078 0.44922,1 1,1c0.55078,0 1,-0.44922 1,-1c0,-0.55078 -0.44922,-1 -1,-1zM43,21c-0.55078,0 -1,0.44922 -1,1c0,0.55078 0.44922,1 1,1c0.55078,0 1,-0.44922 1,-1c0,-0.55078 -0.44922,-1 -1,-1zM55,21c-0.55078,0 -1,0.44922 -1,1c0,0.55078 0.44922,1 1,1c0.55078,0 1,-0.44922 1,-1c0,-0.55078 -0.44922,-1 -1,-1zM61,21c-0.55078,0 -1,0.44922 -1,1c0,0.55078 0.44922,1 1,1c0.55078,0 1,-0.44922 1,-1c0,-0.55078 -0.44922,-1 -1,-1zM16,22c-0.55078,0 -1,0.44922 -1,1c0,0.55078 0.44922,1 1,1c0.55078,0 1,-0.44922 1,-1c0,-0.55078 -0.44922,-1 -1,-1zM22,22c-0.55078,0 -1,0.44922 -1,1c0,0.55078 0.44922,1 1,1c0.55078,0 1,-0.44922 1,-1c0,-0.55078 -0.44922,-1 -1,-1zM40,24c-0.55078,0 -1,0.44922 -1,1c0,0.55078 0.44922,1 1,1c0.55078,0 1,-0.44922 1,-1c0,-0.55078 -0.44922,-1 -1,-1zM58,24c-0.55078,0 -1,0.44922 -1,1c0,0.55078 0.44922,1 1,1c0.55078,0 1,-0.44922 1,-1c0,-0.55078 -0.44922,-1 -1,-1zM64,24c-0.55078,0 -1,0.44922 -1,1c0,0.55078 0.44922,1 1,1c0.55078,0 1,-0.44922 1,-1c0,-0.55078 -0.44922,-1 -1,-1zM19,26c-0.55078,0 -1,0.44922 -1,1c0,0.55078 0.44922,1 1,1c0.55078,0 1,-0.44922 1,-1c0,-0.55078 -0.44922,-1 -1,-1zM61,27c-0.55078,0 -1,0.44922 -1,1c0,0.55078 0.44922,1 1,1c0.55078,0 1,-0.44922 1,-1c0,-0.55078 -0.44922,-1 -1,-1zM54.12109,27.52734c-0.03516,0.0625 -0.0625,0.12891 -0.08203,0.19531c-0.00391,-0.01562 -0.01953,-0.08203 -0.02344,-0.08203zM22,29c-0.55078,0 -1,0.44922 -1,1c0,0.55078 0.44922,1 1,1c0.55078,0 1,-0.44922 1,-1c0,-0.55078 -0.44922,-1 -1,-1zM40,30c-0.55078,0 -1,0.44922 -1,1c0,0.55078 0.44922,1 1,1c0.55078,0 1,-0.44922 1,-1c0,-0.55078 -0.44922,-1 -1,-1zM58,30c-0.55078,0 -1,0.44922 -1,1c0,0.55078 0.44922,1 1,1c0.55078,0 1,-0.44922 1,-1c0,-0.55078 -0.44922,-1 -1,-1zM19,32c-0.55078,0 -1,0.44922 -1,1c0,0.55078 0.44922,1 1,1c0.55078,0 1,-0.44922 1,-1c0,-0.55078 -0.44922,-1 -1,-1zM37,33c-0.55078,0 -1,0.44922 -1,1c0,0.55078 0.44922,1 1,1c0.55078,0 1,-0.44922 1,-1c0,-0.55078 -0.44922,-1 -1,-1zM43,33c-0.55078,0 -1,0.44922 -1,1c0,0.55078 0.44922,1 1,1c0.55078,0 1,-0.44922 1,-1c0,-0.55078 -0.44922,-1 -1,-1zM61,33c-0.55078,0 -1,0.44922 -1,1c0,0.55078 0.44922,1 1,1c0.55078,0 1,-0.44922 1,-1c0,-0.55078 -0.44922,-1 -1,-1zM34,36c-0.55078,0 -1,0.44922 -1,1c0,0.55078 0.44922,1 1,1c0.55078,0 1,-0.44922 1,-1c0,-0.55078 -0.44922,-1 -1,-1zM40,36c-0.55078,0 -1,0.44922 -1,1c0,0.55078 0.44922,1 1,1c0.55078,0 1,-0.44922 1,-1c0,-0.55078 -0.44922,-1 -1,-1zM46,36c-0.55078,0 -1,0.44922 -1,1c0,0.55078 0.44922,1 1,1c0.55078,0 1,-0.44922 1,-1c0,-0.55078 -0.44922,-1 -1,-1zM19,39c-0.55078,0 -1,0.44922 -1,1c0,0.55078 0.44922,1 1,1c0.55078,0 1,-0.44922 1,-1c0,-0.55078 -0.44922,-1 -1,-1zM25,39c-0.55078,0 -1,0.44922 -1,1c0,0.55078 0.44922,1 1,1c0.55078,0 1,-0.44922 1,-1c0,-0.55078 -0.44922,-1 -1,-1zM31,39c-0.55078,0 -1,0.44922 -1,1c0,0.55078 0.44922,1 1,1c0.55078,0 1,-0.44922 1,-1c0,-0.55078 -0.44922,-1 -1,-1zM49,39c-0.55078,0 -1,0.44922 -1,1c0,0.55078 0.44922,1 1,1c0.55078,0 1,-0.44922 1,-1c0,-0.55078 -0.44922,-1 -1,-1zM55,39c-0.55078,0 -1,0.44922 -1,1c0,0.55078 0.44922,1 1,1c0.55078,0 1,-0.44922 1,-1c0,-0.55078 -0.44922,-1 -1,-1zM61,39c-0.55078,0 -1,0.44922 -1,1c0,0.55078 0.44922,1 1,1c0.55078,0 1,-0.44922 1,-1c0,-0.55078 -0.44922,-1 -1,-1zM16,42c-0.55078,0 -1,0.44922 -1,1c0,0.55078 0.44922,1 1,1c0.55078,0 1,-0.44922 1,-1c0,-0.55078 -0.44922,-1 -1,-1zM22,42c-0.55078,0 -1,0.44922 -1,1c0,0.55078 0.44922,1 1,1c0.55078,0 1,-0.44922 1,-1c0,-0.55078 -0.44922,-1 -1,-1zM28,42c-0.55078,0 -1,0.44922 -1,1c0,0.55078 0.44922,1 1,1c0.55078,0 1,-0.44922 1,-1c0,-0.55078 -0.44922,-1 -1,-1zM52,42c-0.55078,0 -1,0.44922 -1,1c0,0.55078 0.44922,1 1,1c0.55078,0 1,-0.44922 1,-1c0,-0.55078 -0.44922,-1 -1,-1zM58,42c-0.55078,0 -1,0.44922 -1,1c0,0.55078 0.44922,1 1,1c0.55078,0 1,-0.44922 1,-1c0,-0.55078 -0.44922,-1 -1,-1zM64,42c-0.55078,0 -1,0.44922 -1,1c0,0.55078 0.44922,1 1,1c0.55078,0 1,-0.44922 1,-1c0,-0.55078 -0.44922,-1 -1,-1zM13,45c-0.55078,0 -1,0.44922 -1,1c0,0.55078 0.44922,1 1,1c0.55078,0 1,-0.44922 1,-1c0,-0.55078 -0.44922,-1 -1,-1zM19,45c-0.55078,0 -1,0.44922 -1,1c0,0.55078 0.44922,1 1,1c0.55078,0 1,-0.44922 1,-1c0,-0.55078 -0.44922,-1 -1,-1zM25,45c-0.55078,0 -1,0.44922 -1,1c0,0.55078 0.44922,1 1,1c0.55078,0 1,-0.44922 1,-1c0,-0.55078 -0.44922,-1 -1,-1zM55,45c-0.55078,0 -1,0.44922 -1,1c0,0.55078 0.44922,1 1,1c0.55078,0 1,-0.44922 1,-1c0,-0.55078 -0.44922,-1 -1,-1zM61,45c-0.55078,0 -1,0.44922 -1,1c0,0.55078 0.44922,1 1,1c0.55078,0 1,-0.44922 1,-1c0,-0.55078 -0.44922,-1 -1,-1zM67,45c-0.55078,0 -1,0.44922 -1,1c0,0.55078 0.44922,1 1,1c0.55078,0 1,-0.44922 1,-1c0,-0.55078 -0.44922,-1 -1,-1zM16,48c-0.55078,0 -1,0.44922 -1,1c0,0.55078 0.44922,1 1,1c0.55078,0 1,-0.44922 1,-1c0,-0.55078 -0.44922,-1 -1,-1zM22,48c-0.55078,0 -1,0.44922 -1,1c0,0.55078 0.44922,1 1,1c0.55078,0 1,-0.44922 1,-1c0,-0.55078 -0.44922,-1 -1,-1zM28,48c-0.55078,0 -1,0.44922 -1,1c0,0.55078 0.44922,1 1,1c0.55078,0 1,-0.44922 1,-1c0,-0.55078 -0.44922,-1 -1,-1zM52,48c-0.55078,0 -1,0.44922 -1,1c0,0.55078 0.44922,1 1,1c0.55078,0 1,-0.44922 1,-1c0,-0.55078 -0.44922,-1 -1,-1zM58,48c-0.55078,0 -1,0.44922 -1,1c0,0.55078 0.44922,1 1,1c0.55078,0 1,-0.44922 1,-1c0,-0.55078 -0.44922,-1 -1,-1zM64,48c-0.55078,0 -1,0.44922 -1,1c0,0.55078 0.44922,1 1,1c0.55078,0 1,-0.44922 1,-1c0,-0.55078 -0.44922,-1 -1,-1zM13,51c-0.55078,0 -1,0.44922 -1,1c0,0.55078 0.44922,1 1,1c0.55078,0 1,-0.44922 1,-1c0,-0.55078 -0.44922,-1 -1,-1zM19,51c-0.55078,0 -1,0.44922 -1,1c0,0.55078 0.44922,1 1,1c0.55078,0 1,-0.44922 1,-1c0,-0.55078 -0.44922,-1 -1,-1zM25,51c-0.55078,0 -1,0.44922 -1,1c0,0.55078 0.44922,1 1,1c0.55078,0 1,-0.44922 1,-1c0,-0.55078 -0.44922,-1 -1,-1zM31,51c-0.55078,0 -1,0.44922 -1,1c0,0.55078 0.44922,1 1,1c0.55078,0 1,-0.44922 1,-1c0,-0.55078 -0.44922,-1 -1,-1zM49,51c-0.55078,0 -1,0.44922 -1,1c0,0.55078 0.44922,1 1,1c0.55078,0 1,-0.44922 1,-1c0,-0.55078 -0.44922,-1 -1,-1zM55,51c-0.55078,0 -1,0.44922 -1,1c0,0.55078 0.44922,1 1,1c0.55078,0 1,-0.44922 1,-1c0,-0.55078 -0.44922,-1 -1,-1zM61,51c-0.55078,0 -1,0.44922 -1,1c0,0.55078 0.44922,1 1,1c0.55078,0 1,-0.44922 1,-1c0,-0.55078 -0.44922,-1 -1,-1zM67,51c-0.55078,0 -1,0.44922 -1,1c0,0.55078 0.44922,1 1,1c0.55078,0 1,-0.44922 1,-1c0,-0.55078 -0.44922,-1 -1,-1zM16,54c-0.55078,0 -1,0.44922 -1,1c0,0.55078 0.44922,1 1,1c0.55078,0 1,-0.44922 1,-1c0,-0.55078 -0.44922,-1 -1,-1zM22,54c-0.55078,0 -1,0.44922 -1,1c0,0.55078 0.44922,1 1,1c0.55078,0 1,-0.44922 1,-1c0,-0.55078 -0.44922,-1 -1,-1zM28,54c-0.55078,0 -1,0.44922 -1,1c0,0.55078 0.44922,1 1,1c0.55078,0 1,-0.44922 1,-1c0,-0.55078 -0.44922,-1 -1,-1zM52,54c-0.55078,0 -1,0.44922 -1,1c0,0.55078 0.44922,1 1,1c0.55078,0 1,-0.44922 1,-1c0,-0.55078 -0.44922,-1 -1,-1zM58,54c-0.55078,0 -1,0.44922 -1,1c0,0.55078 0.44922,1 1,1c0.55078,0 1,-0.44922 1,-1c0,-0.55078 -0.44922,-1 -1,-1zM64,54c-0.55078,0 -1,0.44922 -1,1c0,0.55078 0.44922,1 1,1c0.55078,0 1,-0.44922 1,-1c0,-0.55078 -0.44922,-1 -1,-1zM13,57c-0.55078,0 -1,0.44922 -1,1c0,0.55078 0.44922,1 1,1c0.55078,0 1,-0.44922 1,-1c0,-0.55078 -0.44922,-1 -1,-1zM19,57c-0.55078,0 -1,0.44922 -1,1c0,0.55078 0.44922,1 1,1c0.55078,0 1,-0.44922 1,-1c0,-0.55078 -0.44922,-1 -1,-1zM25,57c-0.55078,0 -1,0.44922 -1,1c0,0.55078 0.44922,1 1,1c0.55078,0 1,-0.44922 1,-1c0,-0.55078 -0.44922,-1 -1,-1zM31,57c-0.55078,0 -1,0.44922 -1,1c0,0.55078 0.44922,1 1,1c0.55078,0 1,-0.44922 1,-1c0,-0.55078 -0.44922,-1 -1,-1zM49,57c-0.55078,0 -1,0.44922 -1,1c0,0.55078 0.44922,1 1,1c0.55078,0 1,-0.44922 1,-1c0,-0.55078 -0.44922,-1 -1,-1zM55,57c-0.55078,0 -1,0.44922 -1,1c0,0.55078 0.44922,1 1,1c0.55078,0 1,-0.44922 1,-1c0,-0.55078 -0.44922,-1 -1,-1zM61,57c-0.55078,0 -1,0.44922 -1,1c0,0.55078 0.44922,1 1,1c0.55078,0 1,-0.44922 1,-1c0,-0.55078 -0.44922,-1 -1,-1zM67,57c-0.55078,0 -1,0.44922 -1,1c0,0.55078 0.44922,1 1,1c0.55078,0 1,-0.44922 1,-1c0,-0.55078 -0.44922,-1 -1,-1zM16,60c-0.55078,0 -1,0.44922 -1,1c0,0.55078 0.44922,1 1,1c0.55078,0 1,-0.44922 1,-1c0,-0.55078 -0.44922,-1 -1,-1zM22,60c-0.55078,0 -1,0.44922 -1,1c0,0.55078 0.44922,1 1,1c0.55078,0 1,-0.44922 1,-1c0,-0.55078 -0.44922,-1 -1,-1zM28,60c-0.55078,0 -1,0.44922 -1,1c0,0.55078 0.44922,1 1,1c0.55078,0 1,-0.44922 1,-1c0,-0.55078 -0.44922,-1 -1,-1zM52,60c-0.55078,0 -1,0.44922 -1,1c0,0.55078 0.44922,1 1,1c0.55078,0 1,-0.44922 1,-1c0,-0.55078 -0.44922,-1 -1,-1zM58,60c-0.55078,0 -1,0.44922 -1,1c0,0.55078 0.44922,1 1,1c0.55078,0 1,-0.44922 1,-1c0,-0.55078 -0.44922,-1 -1,-1zM64,60c-0.55078,0 -1,0.44922 -1,1c0,0.55078 0.44922,1 1,1c0.55078,0 1,-0.44922 1,-1c0,-0.55078 -0.44922,-1 -1,-1zM19,63c-0.55078,0 -1,0.44922 -1,1c0,0.55078 0.44922,1 1,1c0.55078,0 1,-0.44922 1,-1c0,-0.55078 -0.44922,-1 -1,-1zM25,63c-0.55078,0 -1,0.44922 -1,1c0,0.55078 0.44922,1 1,1c0.55078,0 1,-0.44922 1,-1c0,-0.55078 -0.44922,-1 -1,-1zM55,63c-0.55078,0 -1,0.44922 -1,1c0,0.55078 0.44922,1 1,1c0.55078,0 1,-0.44922 1,-1c0,-0.55078 -0.44922,-1 -1,-1zM61,63c-0.55078,0 -1,0.44922 -1,1c0,0.55078 0.44922,1 1,1c0.55078,0 1,-0.44922 1,-1c0,-0.55078 -0.44922,-1 -1,-1zM22,66c-0.55078,0 -1,0.44922 -1,1c0,0.55078 0.44922,1 1,1c0.55078,0 1,-0.44922 1,-1c0,-0.55078 -0.44922,-1 -1,-1zM58,66c-0.55078,0 -1,0.44922 -1,1c0,0.55078 0.44922,1 1,1c0.55078,0 1,-0.44922 1,-1c0,-0.55078 -0.44922,-1 -1,-1z"></path></g></g></svg>